<svg width="66" height="10" viewBox="0 0 66 10" fill="none" xmlns="http://www.w3.org/2000/svg">
<path d="M51.393 3.14848L48.6894 2.75747L47.4811 0.326989C47.2646 -0.106238 46.6373 -0.111746 46.4189 0.326989L45.2106 2.75747L42.507 3.14848C42.0222 3.21823 41.8279 3.81117 42.1795 4.15077L44.1354 6.04156L43.6728 8.71251C43.5896 9.19531 44.1021 9.55694 44.5314 9.33115L46.95 8.07002L49.3686 9.33115C49.7979 9.55511 50.3104 9.19531 50.2272 8.71251L49.7646 6.04156L51.7205 4.15077C52.0721 3.81117 51.8778 3.21823 51.393 3.14848V3.14848ZM48.8116 5.73316L49.2501 8.27378L46.95 7.07506L44.6499 8.27378L45.0884 5.73316L43.2269 3.93416L45.799 3.56335L46.95 1.25035L48.101 3.56335L50.6731 3.93416L48.8116 5.73316V5.73316Z" fill="#FFD168"/>
<path d="M37.393 3.14848L34.6894 2.75747L33.4811 0.326989C33.2646 -0.106238 32.6373 -0.111746 32.4189 0.326989L31.2106 2.75747L28.507 3.14848C28.0222 3.21823 27.8279 3.81117 28.1795 4.15077L30.1354 6.04156L29.6728 8.71251C29.5896 9.19531 30.1021 9.55694 30.5314 9.33115L32.95 8.07002L35.3686 9.33115C35.7979 9.55511 36.3104 9.19531 36.2272 8.71251L35.7646 6.04156L37.7205 4.15077C38.0721 3.81117 37.8778 3.21823 37.393 3.14848V3.14848ZM34.8116 5.73316L35.2501 8.27378L32.95 7.07506L30.6499 8.27378L31.0884 5.73316L29.2269 3.93416L31.799 3.56335L32.95 1.25035L34.101 3.56335L36.6731 3.93416L34.8116 5.73316V5.73316Z" fill="#FFD168"/>
<path d="M23.393 3.14848L20.6894 2.75747L19.4811 0.326989C19.2646 -0.106238 18.6373 -0.111746 18.4189 0.326989L17.2106 2.75747L14.507 3.14848C14.0222 3.21823 13.8279 3.81117 14.1795 4.15077L16.1354 6.04156L15.6728 8.71251C15.5896 9.19531 16.1021 9.55694 16.5314 9.33115L18.95 8.07002L21.3686 9.33115C21.7979 9.55511 22.3104 9.19531 22.2272 8.71251L21.7646 6.04156L23.7205 4.15077C24.0721 3.81117 23.8778 3.21823 23.393 3.14848V3.14848ZM20.8116 5.73316L21.2501 8.27378L18.95 7.07506L16.6499 8.27378L17.0884 5.73316L15.2269 3.93416L17.799 3.56335L18.95 1.25035L20.101 3.56335L22.6731 3.93416L20.8116 5.73316V5.73316Z" fill="#FFD168"/>
<path d="M9.39296 3.14848L6.68944 2.75747L5.48108 0.326989C5.26458 -0.106238 4.63727 -0.111746 4.41892 0.326989L3.21056 2.75747L0.507036 3.14848C0.0222144 3.21823 -0.172084 3.81117 0.179504 4.15077L2.13544 6.04156L1.67283 8.71251C1.58956 9.19531 2.10214 9.55694 2.53144 9.33115L4.95 8.07002L7.36856 9.33115C7.79786 9.55511 8.31044 9.19531 8.22717 8.71251L7.76456 6.04156L9.7205 4.15077C10.0721 3.81117 9.87779 3.21823 9.39296 3.14848V3.14848ZM6.81157 5.73316L7.25013 8.27378L4.95 7.07506L2.64987 8.27378L3.08843 5.73316L1.22687 3.93416L3.79901 3.56335L4.95 1.25035L6.10099 3.56335L8.67313 3.93416L6.81157 5.73316V5.73316Z" fill="#FFD168"/>
<path d="M65.393 3.14848L62.6894 2.75747L61.4811 0.326989C61.2646 -0.106238 60.6373 -0.111746 60.4189 0.326989L59.2106 2.75747L56.507 3.14848C56.0222 3.21823 55.8279 3.81117 56.1795 4.15077L58.1354 6.04156L57.6728 8.71251C57.5896 9.19531 58.1021 9.55694 58.5314 9.33115L60.95 8.07002L63.3686 9.33115C63.7979 9.55511 64.3104 9.19531 64.2272 8.71251L63.7646 6.04156L65.7205 4.15077C66.0721 3.81117 65.8778 3.21823 65.393 3.14848V3.14848ZM62.8116 5.73316L63.2501 8.27378L60.95 7.07506L58.6499 8.27378L59.0884 5.73316L57.2269 3.93416L59.799 3.56335L60.95 1.25035L62.101 3.56335L64.6731 3.93416L62.8116 5.73316V5.73316Z" fill="#FFD168"/>
</svg>
